HIERARCHY
ROOT pelvis
{
  OFFSET 0 100 0
  CHANNELS 6 Xposition Yposition Zposition Zrotation Xrotation Yrotation
  JOINT pelvis_right_femur
  {
    OFFSET -10.78128 -3.44521 -0.5502486
    CHANNELS 3 Zrotation Xrotation Yrotation
    JOINT right_femur_tibia
    {
      OFFSET -0.8047443 -44.0398 -0.1307829
      CHANNELS 3 Zrotation Xrotation Yrotation
      JOINT right_tibia_foot
      {
        OFFSET 3.006224 -47.83518 -5
        CHANNELS 3 Zrotation Xrotation Yrotation
        End Site
        {
          OFFSET 0 -5 15
        }
      }
    }
  }
  JOINT pelvis_left_femur
  {
    OFFSET 10.78128 -3.44521 -0.5502486
    CHANNELS 3 Zrotation Xrotation Yrotation
    JOINT left_femur_tibia
    {
      OFFSET 0.8047443 -44.0398 -0.1307829
      CHANNELS 3 Zrotation Xrotation Yrotation
      JOINT left_tibia_foot
      {
        OFFSET -4.370144 -48.10324 -4.275266
        CHANNELS 3 Zrotation Xrotation Yrotation
        End Site
        {
          OFFSET 0 -5 15
        }
      }
    }
  }
  JOINT pelvis_spine1
  {
    OFFSET 0 6.468898 -3.129235
    CHANNELS 3 Zrotation Xrotation Yrotation
    JOINT spine1
    {
      OFFSET 0 23.15396 4.99043
      CHANNELS 3 Zrotation Xrotation Yrotation
      JOINT spine2
      {
        OFFSET 0 20.79997 -5.064912
        CHANNELS 3 Zrotation Xrotation Yrotation
        JOINT neck
        {
          OFFSET 0 14.38658 9.616178
          CHANNELS 3 Zrotation Xrotation Yrotation
          End Site
          {
            OFFSET 0 20 0
          }
        }
      }
      JOINT right_manubrium
      {
        OFFSET -5.722621 16.35077 3.967754
        CHANNELS 3 Zrotation Xrotation Yrotation
        JOINT right_clavicle
        {
          OFFSET -13.16364 1.694482 -4.693211
          CHANNELS 3 Zrotation Xrotation Yrotation
          JOINT right_humerus
          {
            OFFSET -28.5034 -0.3100689 -2.792744
            CHANNELS 3 Zrotation Xrotation Yrotation
            JOINT right_radius
            {
              OFFSET -25.15693 0.02248979 -1.271978
              CHANNELS 3 Zrotation Xrotation Yrotation
              End Site
              {
                OFFSET -15 0 0
              }
            }
          }
        }
      }
      JOINT left_manubrium
      {
        OFFSET 5.722621 16.35077 3.967754
        CHANNELS 3 Zrotation Xrotation Yrotation
        JOINT left_clavicle
        {
          OFFSET 13.16364 1.694482 -4.693211
          CHANNELS 3 Zrotation Xrotation Yrotation
          JOINT left_humerus
          {
            OFFSET 29.39168 -1.063119 -2.237045
            CHANNELS 3 Zrotation Xrotation Yrotation
            JOINT left_radius
            {
              OFFSET 24.59957 -0.9528479 0.9047498
              CHANNELS 3 Zrotation Xrotation Yrotation
              End Site
              {
                OFFSET 15 -0 -0
              }
            }
          }
        }
      }
    }
  }
}
MOTION
Frames: 23
Frame Time: 0.0416666666667
1783.902 104.1505 2244.84 5.222186 -0.9973212 69.91729 4.358326 1.850056 4.53044 -0 11.13621 -0 -2.486507 -8.918409 -2.06133 -1.846457 -13.14774 -5.856267 -0 58.19727 -0 -7.705726 -5.191598 14.50607 -0.5731115 -0.861724 6.386867 -2.186005 13.42829 -3.264431 0.5430378 22.30023 6.294207 6.432378 -15.98044 3.912254 2.448264 -22.99168 11.75496 85.24715 27.6473 -10.2162 -0 0 19.97907 -25.04588 9.25481 11.10175 5.555668 -23.05875 -9.188093 -93.16228 9.103639 26.67366 0 0 -2.667916 13.83371 13.58092 -3.992075
1789.199 104.3922 2246.639 5.233192 -0.8125056 69.40732 4.036469 5.390172 4.136647 -0 10.14935 -0 -2.577048 -11.10846 -1.380264 -0.8024055 -18.17243 -4.654694 -0 51.47305 -0 -6.88959 -5.722326 15.80677 -0.4400296 -0.9825702 6.65935 -2.003348 13.19215 -3.308462 0.5601541 22.13877 6.041695 5.900166 -16.1917 4.074663 1.784896 -23.95231 11.74312 85.18088 27.22262 -9.370947 -0 0 21.18822 -24.9289 9.110685 11.60875 5.193692 -22.45064 -8.580989 -93.51104 9.132994 28.44127 0 0 -1.745555 13.08163 13.59875 -3.260806
1794.467 104.0472 2248.391 5.426009 -1.044282 68.86338 4.106563 8.20869 4.089096 -0 9.874711 -0 -1.802751 -12.78213 -1.217174 0.3776639 -21.34534 -3.378133 -0 43.94665 -0 -6.822624 -6.155552 17.31297 -0.3394969 -1.071137 6.845262 -1.821627 13.09182 -3.437595 0.558029 21.99183 5.817057 5.519922 -16.36974 4.119522 1.298492 -24.61694 11.75734 85.26793 26.84252 -9.003914 -0 0 21.98623 -24.75529 9.032205 11.82521 4.954235 -22.16601 -8.207164 -93.66134 9.094662 29.52929 0 0 -1.390257 12.63959 13.58837 -2.891211
1799.818 103.2007 2250.125 5.622278 -1.434808 68.24724 4.178253 11.03318 3.945655 -0 9.963027 -0 -0.7844872 -14.18439 -1.15059 1.410494 -23.67887 -2.369364 -0 35.92697 -0 -7.129384 -6.698677 18.672 -0.270393 -1.115736 6.947813 -1.699651 13.04824 -3.541502 0.5650393 21.89964 5.653915 5.270477 -16.50335 4.140424 0.9812765 -25.01587 11.76982 85.37913 26.5888 -8.841051 -0 0 22.44408 -24.62835 8.992183 11.92133 4.809254 -22.01284 -7.981846 -93.71147 9.071849 30.11922 0 0 -1.252512 12.39786 13.59178 -2.724845
1805.394 102.0091 2251.847 5.39535 -1.724346 67.58817 4.057954 14.03682 3.438508 -0 10.34552 -0 -0.1684136 -15.2271 -0.7084876 2.176169 -25.82515 -1.773773 -0 27.54163 -0 -7.209441 -7.182411 19.48429 -0.2185578 -1.084037 6.948883 -1.658642 13.03848 -3.590752 0.6089692 21.88144 5.542883 5.121815 -16.63753 4.186099 0.7900255 -25.14543 11.77263 85.53414 26.47216 -8.817813 -0 0 22.54669 -24.58317 8.972975 11.93931 4.747596 -21.91157 -7.862168 -93.65078 9.112556 30.18923 0 0 -1.263197 12.3354 13.64018 -2.761614
1811.387 100.7641 2253.573 4.71976 -1.685331 66.9484 3.500302 16.89821 2.834889 -0 11.89522 -0 -0.02857504 -15.0986 0.1117341 2.240462 -27.2871 -1.905818 -0 20.41283 -0 -6.681448 -7.345556 19.65492 -0.1842733 -0.9794465 6.868535 -1.665838 13.12202 -3.642213 0.6503492 21.91087 5.496047 5.118814 -16.75347 4.186122 0.7677839 -24.97939 11.80269 85.78872 26.46098 -9.113999 -0 0 22.23927 -24.5248 8.989465 11.73562 4.767266 -22.00161 -7.945404 -93.46794 9.149668 29.70701 0 0 -1.591413 12.50578 13.67679 -3.046407
1817.933 99.83793 2255.326 4.157388 -1.197315 66.42526 2.241283 19.06559 2.674993 -0 16.12097 -0 -0.05462475 -12.5881 0.7752589 0.9952452 -26.98977 -3.122287 -0 16.97082 -0 -5.653602 -7.365409 19.50185 -0.1813877 -0.8323718 6.714671 -1.723977 13.26569 -3.67651 0.6802996 21.98474 5.535868 5.270872 -16.80855 4.146893 0.9281191 -24.53961 11.84324 86.06318 26.57004 -9.643442 -0 0 21.58213 -24.49069 9.03874 11.38102 4.878668 -22.25608 -8.202535 -93.19651 9.175115 28.75524 0 0 -2.171952 12.86593 13.69347 -3.51137
1824.955 99.50555 2257.108 4.272671 -0.4410979 66.15253 0.5018016 19.94657 3.130637 -0 23.80207 -0 -0.04296016 -7.329684 0.7349898 -1.358323 -24.59618 -5.076791 -0 17.55455 -0 -4.498994 -7.744505 19.47134 -0.1973393 -0.6807541 6.520904 -1.801359 13.41656 -3.702389 0.7078332 22.07705 5.614437 5.484041 -16.82574 4.098624 1.159104 -23.98642 11.87491 86.32714 26.72985 -10.24374 -0 0 20.79015 -24.49056 9.102744 10.99858 5.042078 -22.56654 -8.507549 -92.8768 9.195782 27.59372 0 0 -2.870723 13.29246 13.70547 -4.046554
1832.164 99.90633 2258.88 4.850393 0.2493398 66.26271 -0.9759359 18.88375 3.829284 -0 33.92797 -0 -0.1543517 -0.5952781 0.07088575 -3.744282 -20.84352 -6.818954 -0 19.88813 -0 -3.200862 -8.529247 19.53875 -0.2152308 -0.5418654 6.314703 -1.873463 13.54122 -3.728438 0.7441286 22.16992 5.686446 5.675431 -16.84076 4.06928 1.362819 -23.44806 11.89043 86.58197 26.88118 -10.80088 -0 0 20.02145 -24.51685 9.164924 10.66656 5.21408 -22.84226 -8.765599 -92.53946 9.225608 26.42735 0 0 -3.575176 13.69031 13.72938 -4.572175
1839.215 101.0168 2260.585 5.399439 0.60936 66.82888 -1.560395 15.45899 4.41693 -0 44.41406 -0 -0.3090912 5.43796 -0.9958977 -5.320554 -16.50034 -7.742458 -0 21.74632 -0 -1.745641 -9.487717 19.41294 -0.228067 -0.4098317 6.095268 -1.937873 13.63352 -3.754248 0.7969479 22.26502 5.740543 5.823259 -16.86989 4.072939 1.51421 -22.94221 11.89054 86.84358 27.01436 -11.29706 -0 0 19.28844 -24.56533 9.220828 10.39512 5.382205 -23.05511 -8.955671 -92.18312 9.277886 25.27715 0 0 -4.263239 14.04045 13.775 -5.079162
1845.838 102.5659 2262.161 5.814611 0.442031 67.83139 -1.123939 9.67824 4.678299 -0 52.73542 -0 -0.1476944 8.888896 -2.523528 -5.877278 -11.66802 -7.878018 -0 21.87271 -0 -0.6137657 -10.65921 18.95436 -0.2392474 -0.2925054 5.875633 -1.977989 13.72205 -3.809568 0.8444481 22.34683 5.783532 5.952431 -16.90236 4.070641 1.635872 -22.45875 11.89022 87.13086 27.11416 -11.81959 -0 0 18.57354 -24.59364 9.277229 10.11635 5.551051 -23.2809 -9.126034 -91.80272 9.313999 24.12804 0 0 -5.028372 14.37435 13.81137 -5.593163
1851.918 104.1238 2263.579 6.134032 -0.1851572 69.12101 -0.1403933 2.130469 4.541239 -0 56.41365 -0 0.2071433 8.980319 -4.282059 -5.693591 -6.295271 -7.726004 -0 20.05477 -0 -0.2354931 -12.06785 18.1548 -0.2624544 -0.2068105 5.669807 -1.996545 13.81495 -3.892823 0.869418 22.40875 5.834933 6.097363 -16.90663 4.036138 1.77026 -21.98904 11.89034 87.4005 27.19672 -12.37824 -0 0 17.88841 -24.60309 9.33843 9.820902 5.735268 -23.56086 -9.308332 -91.42051 9.307184 22.99847 0 0 -5.876145 14.71116 13.81843 -6.105562
1857.527 105.2675 2264.865 6.321513 -0.8880687 70.45645 0.6621471 -5.854003 4.102266 -0 54.33272 -0 0.3112767 6.620619 -5.789878 -5.268489 -0.7935999 -7.774224 -0 17.16221 -0 -0.5933824 -13.64545 17.1551 -0.3071179 -0.1585369 5.480185 -2.01243 13.89744 -3.974358 0.8763027 22.45996 5.90545 6.268262 -16.86349 3.979141 1.940762 -21.53332 11.88091 87.59655 27.29317 -12.90528 -0 0 17.25792 -24.62802 9.402998 9.556818 5.941461 -23.86447 -9.49256 -91.06513 9.269809 21.92169 0 0 -6.716941 15.04261 13.8075 -6.584581
1862.861 105.7263 2266.105 6.256109 -1.261454 71.62968 0.8932318 -12.82368 3.464269 -0 47.45723 -0 0.1000922 3.665978 -6.8242 -4.968171 4.085237 -8.051716 -0 14.34741 -0 -1.321774 -15.35423 16.15121 -0.3742183 -0.1456523 5.309478 -2.038834 13.95853 -4.031443 0.8738134 22.50847 5.99344 6.458272 -16.77114 3.9144 2.14992 -21.10481 11.85704 87.6905 27.41886 -13.34113 -0 0 16.70958 -24.68893 9.467902 9.362984 6.162676 -24.15187 -9.662049 -90.76034 9.221079 20.9422 0 0 -7.45854 15.35292 13.79454 -7.000564
1868.113 105.4709 2267.377 5.860494 -1.213483 72.56316 0.708091 -18.18276 2.687978 -0 38.39788 -0 -0.2269022 1.406788 -7.383472 -4.893819 7.937852 -8.355284 -0 12.31863 -0 -2.059924 -17.09921 15.25504 -0.4602862 -0.1578251 5.150233 -2.08757 13.98959 -4.045391 0.875665 22.56627 6.093859 6.654534 -16.63631 3.863543 2.392812 -20.70448 11.81579 87.67907 27.58658 -13.6459 -0 0 16.24203 -24.80117 9.531741 9.266285 6.389842 -24.38067 -9.799576 -90.51252 9.188099 20.06734 0 0 -8.033105 15.62954 13.80058 -7.339826
1873.38 104.6453 2268.714 5.162875 -0.9263156 73.28535 0.4732104 -22.30141 1.90694 -0 29.58018 -0 -0.6060316 -0.01286859 -7.537847 -4.961489 10.92206 -8.654907 -0 11.18823 -0 -2.683624 -18.73088 14.47734 -0.5630972 -0.1913856 5.0002 -2.15531 13.99971 -4.024995 0.88171 22.63273 6.202327 6.85605 -16.46544 3.822158 2.667973 -20.32623 11.76136 87.5821 27.79013 -13.84789 -0 0 15.83946 -24.95442 9.596777 9.246563 6.622005 -24.56434 -9.914009 -90.31043 9.169223 19.27377 0 0 -8.468072 15.88455 13.82527 -7.620832
1878.694 103.4291 2270.126 4.239334 -0.5585096 73.86103 0.3959816 -25.66954 1.286746 -0 21.94179 -0 -0.9998565 -0.9260325 -7.42633 -5.071996 13.33242 -9.020531 -0 10.83585 -0 -3.254158 -20.17014 13.78153 -0.6845319 -0.2525741 4.872065 -2.237763 14.00152 -3.978743 0.882186 22.70043 6.3193 7.071656 -16.25532 3.772244 2.984715 -19.97845 11.69895 87.39575 28.02118 -13.9672 -0 0 15.5165 -25.13714 9.664441 9.284677 6.857803 -24.73137 -10.02475 -90.16539 9.14892 18.5863 0 0 -8.769575 16.13087 13.85759 -7.845014
1884.091 101.994 2271.634 3.18439 -0.1891291 74.36352 0.5617077 -28.45297 0.9504265 -0 15.61664 -0 -1.336158 -1.510036 -7.185395 -5.148754 15.38256 -9.45629 -0 11.28805 -0 -3.894128 -21.33207 13.10909 -0.8188173 -0.3368528 4.776011 -2.340995 13.99202 -3.89183 0.8803822 22.77279 6.441828 7.290898 -16.0113 3.724266 3.336948 -19.68327 11.63049 87.10868 28.28104 -13.96432 -0 0 15.2997 -25.35145 9.731835 9.396082 7.077348 -24.8529 -10.12583 -90.10789 9.141099 18.07527 0 0 -8.851348 16.34946 13.9048 -7.977478
1889.645 100.5412 2273.28 2.093041 0.07148502 74.86473 1.090555 -30.55558 1.00991 -0 10.93754 -0 -1.693739 -1.798641 -6.882331 -5.072776 17.21811 -9.961333 -0 12.83341 -0 -4.807009 -22.00141 12.36171 -0.9459898 -0.4282403 4.723566 -2.456466 13.97205 -3.7672 0.8787703 22.8455 6.55703 7.485572 -15.76587 3.691226 3.681621 -19.47406 11.56508 86.75724 28.54272 -13.83256 -0 0 15.20615 -25.57179 9.791109 9.565645 7.246283 -24.90395 -10.20754 -90.15354 9.155522 17.81262 0 0 -8.678137 16.50953 13.96419 -7.993352
1895.456 99.35028 2275.122 1.057458 0.01687762 75.40932 2.197537 -31.58043 1.562745 -0 8.759174 -0 -2.395973 -1.839463 -6.487297 -4.657151 18.83718 -10.54883 -0 16.09463 -0 -6.291034 -21.73391 11.4245 -1.036339 -0.5047977 4.734173 -2.561518 13.94702 -3.624847 0.872517 22.90161 6.648122 7.621566 -15.56943 3.677977 3.949569 -19.39787 11.51865 86.40736 28.75303 -13.59419 -0 0 15.2586 -25.74788 9.828367 9.751191 7.321626 -24.87621 -10.26384 -90.31236 9.1856 17.88733 0 0 -8.26485 16.57122 14.01362 -7.871278
1901.61 98.79583 2277.198 0.1654082 -0.6193236 75.94288 4.079386 -30.74776 2.597054 -0 10.28163 -0 -3.915445 -1.900203 -5.877634 -3.757936 19.7561 -11.12158 -0 22.15405 -0 -8.531072 -19.69194 10.30009 -1.059191 -0.5432864 4.826825 -2.634441 13.91319 -3.479815 0.8590544 22.9238 6.698794 7.660412 -15.47178 3.695772 4.065243 -19.50831 11.50527 86.11805 28.86135 -13.24897 -0 0 15.49223 -25.83376 9.826439 9.927289 7.258996 -24.74403 -10.27557 -90.5964 9.227266 18.40232 0 0 -7.611727 16.47902 14.03153 -7.576931
1907.998 99.18144 2279.395 -0.4813388 -1.770901 76.20236 6.308587 -27.21714 3.683129 -0 15.10129 -0 -6.304018 -2.689428 -4.895008 -2.709261 18.34152 -11.33284 -0 32.21012 -0 -11.10203 -15.00277 9.339826 -1.00936 -0.5488953 5.0129 -2.653098 13.87116 -3.360122 0.8280606 22.89258 6.70065 7.589732 -15.4901 3.731777 3.993107 -19.83678 11.53141 85.91661 28.8289 -12.82277 -0 0 15.94181 -25.80203 9.774702 10.0771 7.054077 -24.52668 -10.23258 -90.99351 9.25578 19.38825 0 0 -6.787462 16.21632 13.99619 -7.11173
1914.229 100.3458 2281.405 -0.3669618 -2.469045 75.85961 7.427409 -20.93497 4.105107 -0 18.06956 -0 -7.815144 -4.353419 -3.632559 -2.406731 12.38577 -10.67455 -0 45.61388 -0 -12.50252 -8.739053 9.159557 -0.9211137 -0.5624427 5.278706 -2.605308 13.83399 -3.301796 0.7643093 22.79882 6.662571 7.446264 -15.58284 3.743694 3.782513 -20.3466 11.59013 85.78377 28.65803 -12.39374 -0 0 16.58989 -25.66103 9.684134 10.18664 6.765888 -24.31082 -10.15457 -91.45118 9.230641 20.71386 0 0 -5.953505 15.84479 13.89818 -6.545693
